<mxfile host="app.diagrams.net" modified="2024-04-24T05:34:41.381Z" agent="Mozilla/5.0 (Windows NT 10.0; Win64; x64) AppleWebKit/537.36 (KHTML, like Gecko) Chrome/124.0.0.0 Safari/537.36" etag="aXh3BYYSF-W1DPKNDw19" version="24.2.8" type="device">
  <diagram name="Страница — 1" id="EWhO3Gx6XxkC-h6U1Y10">
    <mxGraphModel dx="2261" dy="746" grid="1" gridSize="10" guides="1" tooltips="1" connect="1" arrows="1" fold="1" page="1" pageScale="1" pageWidth="827" pageHeight="1169" math="0" shadow="0">
      <root>
        <mxCell id="0" />
        <mxCell id="1" parent="0" />
        <mxCell id="rnhfAIAg3B75eq5cqrT6-17" style="edgeStyle=orthogonalEdgeStyle;rounded=0;orthogonalLoop=1;jettySize=auto;html=1;exitX=0.5;exitY=0;exitDx=0;exitDy=0;entryX=0.5;entryY=1;entryDx=0;entryDy=0;" parent="1" source="rnhfAIAg3B75eq5cqrT6-3" target="rnhfAIAg3B75eq5cqrT6-6" edge="1">
          <mxGeometry relative="1" as="geometry" />
        </mxCell>
        <mxCell id="rnhfAIAg3B75eq5cqrT6-3" value="Mobile App" style="rounded=0;whiteSpace=wrap;html=1;" parent="1" vertex="1">
          <mxGeometry x="-90" y="840" width="120" height="60" as="geometry" />
        </mxCell>
        <mxCell id="rnhfAIAg3B75eq5cqrT6-18" style="edgeStyle=orthogonalEdgeStyle;rounded=0;orthogonalLoop=1;jettySize=auto;html=1;exitX=0.5;exitY=0;exitDx=0;exitDy=0;" parent="1" source="rnhfAIAg3B75eq5cqrT6-4" edge="1">
          <mxGeometry relative="1" as="geometry">
            <mxPoint x="40" y="800" as="targetPoint" />
          </mxGeometry>
        </mxCell>
        <mxCell id="rnhfAIAg3B75eq5cqrT6-4" value="Frontend App" style="rounded=0;whiteSpace=wrap;html=1;" parent="1" vertex="1">
          <mxGeometry x="50" y="840" width="120" height="60" as="geometry" />
        </mxCell>
        <mxCell id="rnhfAIAg3B75eq5cqrT6-19" style="edgeStyle=orthogonalEdgeStyle;rounded=0;orthogonalLoop=1;jettySize=auto;html=1;exitX=0.5;exitY=0;exitDx=0;exitDy=0;entryX=0.5;entryY=1;entryDx=0;entryDy=0;" parent="1" source="rnhfAIAg3B75eq5cqrT6-5" target="rnhfAIAg3B75eq5cqrT6-16" edge="1">
          <mxGeometry relative="1" as="geometry" />
        </mxCell>
        <mxCell id="rnhfAIAg3B75eq5cqrT6-5" value="Frontend Admin App" style="rounded=0;whiteSpace=wrap;html=1;" parent="1" vertex="1">
          <mxGeometry x="375" y="610" width="120" height="60" as="geometry" />
        </mxCell>
        <mxCell id="rnhfAIAg3B75eq5cqrT6-6" value="Caddy&lt;br&gt;gateway &lt;br&gt;grpc, /api, " style="rounded=0;whiteSpace=wrap;html=1;" parent="1" vertex="1">
          <mxGeometry x="-70" y="700" width="230" height="100" as="geometry" />
        </mxCell>
        <mxCell id="rnhfAIAg3B75eq5cqrT6-7" value="Users&lt;br&gt;(SQL)" style="shape=cylinder3;whiteSpace=wrap;html=1;boundedLbl=1;backgroundOutline=1;size=15;" parent="1" vertex="1">
          <mxGeometry x="30" y="190" width="100" height="120" as="geometry" />
        </mxCell>
        <mxCell id="rnhfAIAg3B75eq5cqrT6-8" value="(Mongodb)" style="shape=cylinder3;whiteSpace=wrap;html=1;boundedLbl=1;backgroundOutline=1;size=15;" parent="1" vertex="1">
          <mxGeometry x="310" y="190" width="120" height="130" as="geometry" />
        </mxCell>
        <mxCell id="rnhfAIAg3B75eq5cqrT6-10" value="Игрок&lt;br&gt;Сила&lt;br&gt;Жизнь&lt;br&gt;Магия" style="text;html=1;strokeColor=none;fillColor=none;align=center;verticalAlign=middle;whiteSpace=wrap;rounded=0;" parent="1" vertex="1">
          <mxGeometry x="-10" y="130" width="90" height="60" as="geometry" />
        </mxCell>
        <mxCell id="rnhfAIAg3B75eq5cqrT6-13" value="GIS&lt;br&gt;https://h3geo.org/" style="text;html=1;strokeColor=none;fillColor=none;align=center;verticalAlign=middle;whiteSpace=wrap;rounded=0;" parent="1" vertex="1">
          <mxGeometry x="250" y="140" width="140" height="60" as="geometry" />
        </mxCell>
        <mxCell id="rnhfAIAg3B75eq5cqrT6-14" value="User&#39;s &lt;br&gt;Current loc" style="text;html=1;strokeColor=none;fillColor=none;align=center;verticalAlign=middle;whiteSpace=wrap;rounded=0;" parent="1" vertex="1">
          <mxGeometry x="425" y="235" width="110" height="30" as="geometry" />
        </mxCell>
        <mxCell id="rnhfAIAg3B75eq5cqrT6-15" value="Game objects" style="text;html=1;strokeColor=none;fillColor=none;align=center;verticalAlign=middle;whiteSpace=wrap;rounded=0;" parent="1" vertex="1">
          <mxGeometry x="430" y="270" width="100" height="40" as="geometry" />
        </mxCell>
        <mxCell id="rnhfAIAg3B75eq5cqrT6-16" value="Caddy&lt;br&gt;/adminApi&lt;br&gt;" style="rounded=0;whiteSpace=wrap;html=1;" parent="1" vertex="1">
          <mxGeometry x="310" y="510" width="250" height="60" as="geometry" />
        </mxCell>
        <mxCell id="rnhfAIAg3B75eq5cqrT6-20" value="Game Objects &lt;br&gt;CRUD" style="rounded=0;whiteSpace=wrap;html=1;" parent="1" vertex="1">
          <mxGeometry x="440" y="430" width="120" height="60" as="geometry" />
        </mxCell>
        <mxCell id="rnhfAIAg3B75eq5cqrT6-21" value="Users&lt;br&gt;Crud" style="rounded=0;whiteSpace=wrap;html=1;" parent="1" vertex="1">
          <mxGeometry x="310" y="430" width="120" height="60" as="geometry" />
        </mxCell>
        <mxCell id="rnhfAIAg3B75eq5cqrT6-22" style="edgeStyle=orthogonalEdgeStyle;rounded=0;orthogonalLoop=1;jettySize=auto;html=1;exitX=0.5;exitY=0;exitDx=0;exitDy=0;entryX=0.5;entryY=1;entryDx=0;entryDy=0;entryPerimeter=0;" parent="1" source="rnhfAIAg3B75eq5cqrT6-21" target="rnhfAIAg3B75eq5cqrT6-7" edge="1">
          <mxGeometry relative="1" as="geometry" />
        </mxCell>
        <mxCell id="rnhfAIAg3B75eq5cqrT6-23" style="edgeStyle=orthogonalEdgeStyle;rounded=0;orthogonalLoop=1;jettySize=auto;html=1;exitX=0.5;exitY=0;exitDx=0;exitDy=0;entryX=0.5;entryY=1;entryDx=0;entryDy=0;entryPerimeter=0;" parent="1" source="rnhfAIAg3B75eq5cqrT6-20" target="rnhfAIAg3B75eq5cqrT6-8" edge="1">
          <mxGeometry relative="1" as="geometry">
            <Array as="points">
              <mxPoint x="500" y="340" />
              <mxPoint x="370" y="340" />
            </Array>
          </mxGeometry>
        </mxCell>
        <mxCell id="rnhfAIAg3B75eq5cqrT6-45" style="edgeStyle=orthogonalEdgeStyle;rounded=0;orthogonalLoop=1;jettySize=auto;html=1;exitX=0.5;exitY=0;exitDx=0;exitDy=0;entryX=0;entryY=0.5;entryDx=0;entryDy=0;entryPerimeter=0;" parent="1" source="rnhfAIAg3B75eq5cqrT6-24" target="rnhfAIAg3B75eq5cqrT6-7" edge="1">
          <mxGeometry relative="1" as="geometry">
            <mxPoint y="330" as="targetPoint" />
            <Array as="points">
              <mxPoint x="-120" y="570" />
              <mxPoint x="-120" y="250" />
            </Array>
          </mxGeometry>
        </mxCell>
        <mxCell id="rnhfAIAg3B75eq5cqrT6-24" value="User Info" style="rounded=0;whiteSpace=wrap;html=1;" parent="1" vertex="1">
          <mxGeometry x="-160" y="570" width="120" height="60" as="geometry" />
        </mxCell>
        <mxCell id="rnhfAIAg3B75eq5cqrT6-29" style="edgeStyle=orthogonalEdgeStyle;rounded=0;orthogonalLoop=1;jettySize=auto;html=1;exitX=0.5;exitY=0;exitDx=0;exitDy=0;entryX=0.5;entryY=1;entryDx=0;entryDy=0;" parent="1" source="rnhfAIAg3B75eq5cqrT6-25" target="rnhfAIAg3B75eq5cqrT6-27" edge="1">
          <mxGeometry relative="1" as="geometry" />
        </mxCell>
        <mxCell id="rnhfAIAg3B75eq5cqrT6-44" style="edgeStyle=orthogonalEdgeStyle;rounded=0;orthogonalLoop=1;jettySize=auto;html=1;exitX=0.25;exitY=0;exitDx=0;exitDy=0;entryX=0.5;entryY=1;entryDx=0;entryDy=0;" parent="1" source="rnhfAIAg3B75eq5cqrT6-25" target="rnhfAIAg3B75eq5cqrT6-24" edge="1">
          <mxGeometry relative="1" as="geometry" />
        </mxCell>
        <mxCell id="rnhfAIAg3B75eq5cqrT6-25" value="Auth" style="rounded=0;whiteSpace=wrap;html=1;" parent="1" vertex="1">
          <mxGeometry x="-70" y="700" width="230" height="20" as="geometry" />
        </mxCell>
        <mxCell id="rnhfAIAg3B75eq5cqrT6-26" value="Battle" style="rounded=0;whiteSpace=wrap;html=1;" parent="1" vertex="1">
          <mxGeometry x="160" y="400" width="120" height="60" as="geometry" />
        </mxCell>
        <mxCell id="rnhfAIAg3B75eq5cqrT6-36" style="edgeStyle=orthogonalEdgeStyle;rounded=0;orthogonalLoop=1;jettySize=auto;html=1;exitX=0.5;exitY=0;exitDx=0;exitDy=0;entryX=0;entryY=0.5;entryDx=0;entryDy=0;entryPerimeter=0;" parent="1" source="rnhfAIAg3B75eq5cqrT6-27" target="rnhfAIAg3B75eq5cqrT6-8" edge="1">
          <mxGeometry relative="1" as="geometry">
            <mxPoint x="260" y="340" as="targetPoint" />
            <Array as="points">
              <mxPoint x="50" y="330" />
              <mxPoint x="250" y="330" />
              <mxPoint x="250" y="255" />
            </Array>
          </mxGeometry>
        </mxCell>
        <mxCell id="rnhfAIAg3B75eq5cqrT6-27" value="Movements (n instances)" style="rounded=0;whiteSpace=wrap;html=1;" parent="1" vertex="1">
          <mxGeometry x="-15" y="570" width="120" height="60" as="geometry" />
        </mxCell>
        <mxCell id="rnhfAIAg3B75eq5cqrT6-41" style="edgeStyle=orthogonalEdgeStyle;rounded=0;orthogonalLoop=1;jettySize=auto;html=1;exitX=0.75;exitY=0;exitDx=0;exitDy=0;entryX=0.5;entryY=1;entryDx=0;entryDy=0;" parent="1" source="rnhfAIAg3B75eq5cqrT6-35" target="rnhfAIAg3B75eq5cqrT6-26" edge="1">
          <mxGeometry relative="1" as="geometry" />
        </mxCell>
        <mxCell id="rnhfAIAg3B75eq5cqrT6-43" style="edgeStyle=orthogonalEdgeStyle;rounded=0;orthogonalLoop=1;jettySize=auto;html=1;exitX=0.5;exitY=1;exitDx=0;exitDy=0;entryX=0.75;entryY=0;entryDx=0;entryDy=0;" parent="1" source="rnhfAIAg3B75eq5cqrT6-35" target="rnhfAIAg3B75eq5cqrT6-25" edge="1">
          <mxGeometry relative="1" as="geometry" />
        </mxCell>
        <mxCell id="rnhfAIAg3B75eq5cqrT6-35" value="Actions" style="rounded=0;whiteSpace=wrap;html=1;" parent="1" vertex="1">
          <mxGeometry x="130" y="570" width="120" height="60" as="geometry" />
        </mxCell>
        <mxCell id="rnhfAIAg3B75eq5cqrT6-38" style="edgeStyle=orthogonalEdgeStyle;rounded=0;orthogonalLoop=1;jettySize=auto;html=1;exitX=1;exitY=0.5;exitDx=0;exitDy=0;entryX=0.5;entryY=0;entryDx=0;entryDy=0;" parent="1" source="rnhfAIAg3B75eq5cqrT6-37" target="rnhfAIAg3B75eq5cqrT6-35" edge="1">
          <mxGeometry relative="1" as="geometry" />
        </mxCell>
        <mxCell id="rnhfAIAg3B75eq5cqrT6-37" value="KAFKA" style="rounded=0;whiteSpace=wrap;html=1;" parent="1" vertex="1">
          <mxGeometry x="-100" y="460" width="120" height="60" as="geometry" />
        </mxCell>
        <mxCell id="rnhfAIAg3B75eq5cqrT6-39" style="edgeStyle=orthogonalEdgeStyle;rounded=0;orthogonalLoop=1;jettySize=auto;html=1;exitX=0.25;exitY=0;exitDx=0;exitDy=0;entryX=0.4;entryY=1;entryDx=0;entryDy=0;entryPerimeter=0;" parent="1" source="rnhfAIAg3B75eq5cqrT6-27" target="rnhfAIAg3B75eq5cqrT6-37" edge="1">
          <mxGeometry relative="1" as="geometry" />
        </mxCell>
        <mxCell id="rnhfAIAg3B75eq5cqrT6-42" style="edgeStyle=orthogonalEdgeStyle;rounded=0;orthogonalLoop=1;jettySize=auto;html=1;entryX=0.917;entryY=0;entryDx=0;entryDy=0;entryPerimeter=0;" parent="1" target="rnhfAIAg3B75eq5cqrT6-35" edge="1">
          <mxGeometry relative="1" as="geometry">
            <mxPoint x="240" y="460" as="sourcePoint" />
          </mxGeometry>
        </mxCell>
      </root>
    </mxGraphModel>
  </diagram>
</mxfile>
